{"title":"Silent But Deadly 2011 HDTV AC3-5.1 XviD-SiC","uid":7193814,"size":1471237985,"categoryP":"video","categoryS":"movies","magnet":"?xt=urn:btih:d388d043b2620e40e75743975eea29979ebb5858&amp;dn=Silent+But+Deadly+2011+HDTV+AC3-5.1+XviD-SiC&amp;tr=udp%3A%2F%2Ftracker.openbittorrent.com%3A80&amp;tr=udp%3A%2F%2Fopen.demonii.com%3A1337&amp;tr=udp%3A%2F%2Ftracker.coppersurfer.tk%3A6969&amp;tr=udp%3A%2F%2Fexodus.desync.com%3A6969","seeders":1,"leechers":0,"uploader":"HeroMaster","files":-1,"time":1334727451,"description":"Silent But Deadly 2011 HDTV AC3-5 1 XviD-SiC\n\nIMDB Link: &lt;a href=&quot;\nhttp://www.imdb.com/title/tt1237961/&quot; rel=&quot;nofollow&quot; target=&quot;_NEW&quot;&gt;\nhttp://www.imdb.com/title/tt1237961/&lt;/a&gt;\n\nDescription:\nThomas Capper is an unconventional and mysterious serial killer who takes aim at \na Hollywood film set, by unleashing his own brand of retribution on the cast and crew.\n\nMediaInfo:\nGeneral\nComplete name : Silent.But.Deadly.2011.HDTV.AC3-5.1.XviD-SiC.avi\nFormat : AVI\nFormat/Info : Audio Video Interleave\nFile size : 1.37 GiB\nDuration : 1h 20mn\nOverall bit rate : 2 452 Kbps\n\nVideo\nID : 0\nFormat : MPEG-4 Visual\nFormat profile : Advanced Simple@L5\nFormat settings, BVOP : 2\nFormat settings, QPel : No\nFormat settings, GMC : No warppoints\nFormat settings, Matrix : Default (H.263)\nMuxing mode : Packed bitstream\nCodec ID : XVID\nCodec ID/Hint : XviD\nDuration : 1h 20mn\nBit rate : 2 060 Kbps\nWidth : 720 pixels\nHeight : 400 pixels\nDisplay aspect ratio : 16:9\nFrame rate : 23.976 fps\nColor space : YUV\nChroma subsampling : 4:2:0\nBit depth : 8 bits\nScan type : Progressive\nCompression mode : Lossy\nBits/(Pixel*Frame) : 0.298\nStream size : 1.15 GiB (84%)\nWriting library : XviD 1.1.2 (UTC 2006-11-01)\n\nAudio\nID : 1\nFormat : AC-3\nFormat/Info : Audio Coding 3\nMode extension : CM (complete main)\nCodec ID : 2000\nDuration : 1h 20mn\nBit rate mode : Constant\nBit rate : 384 Kbps\nChannel(s) : 6 channels\nChannel positions : Front: L C R, Side: L R, LFE\nSampling rate : 48.0 KHz\nBit depth : 16 bits\nCompression mode : Lossy\nStream size : 220 MiB (16%)\nAlignment : Aligned on interleaves\nInterleave, duration : 64 ms (1.53 video frames)\nInterleave, preload duration : 192 ms\n\n\nPoster:\n\n &lt;a href=&quot;\nhttp://i.imgur.com/RDR7G.jpg&quot; rel=&quot;nofollow&quot; target=&quot;_NEW&quot;&gt;\nhttp://i.imgur.com/RDR7G.jpg&lt;/a&gt;\n\n\nScreenshots:\n\n &lt;a href=&quot;\nhttp://i.imgur.com/OgODR.jpg&quot; rel=&quot;nofollow&quot; target=&quot;_NEW&quot;&gt;\nhttp://i.imgur.com/OgODR.jpg&lt;/a&gt;\n\n\nENJOY!","torrent":{"xt":"urn:btih:d388d043b2620e40e75743975eea29979ebb5858","amp;dn":"Silent+But+Deadly+2011+HDTV+AC3-5.1+XviD-SiC","amp;tr":["udp%3A%2F%2Ftracker.openbittorrent.com%3A80","udp%3A%2F%2Fopen.demonii.com%3A1337","udp%3A%2F%2Ftracker.coppersurfer.tk%3A6969","udp%3A%2F%2Fexodus.desync.com%3A6969"],"infoHash":"d388d043b2620e40e75743975eea29979ebb5858","infoHashBuffer":{"type":"Buffer","data":[211,136,208,67,178,98,14,64,231,87,67,151,94,234,41,151,158,187,88,88]},"announce":[],"urlList":[]}}